<svg xmlns="http://www.w3.org/2000/svg">
  <symbol id="back">
    <path d="M4 2v20h-2v-20h2zm18 0l-16 10 16 10v-20z"/>
  </symbol>
  <symbol id="eject">
    <path d="M24 22h-24v-4h24v4zm0-6.062l-12-13.938-12 13.938h24z"/>
  </symbol>
  <symbol id="end">
    <path d="M0 19v-14l11 7-11 7zm11 0v-14l11 7-11 7zm13-13h-2v12h2v-12z"/>
  </symbol>
  <symbol id="fastforward">
    <path d="M0 19v-14l12 7-12 7zm12 0v-14l12 7-12 7z"/>
  </symbol>
  <symbol id="forward">
    <path d="M20 22v-20h2v20h-2zm-18 0l16-10-16-10v20z"/>
  </symbol>
  <symbol id="pause">
    <path d="M10 24h-6v-24h6v24zm10-24h-6v24h6v-24z"/>
  </symbol>
  <symbol id="play">
    <path d="M2 24v-24l20 12-20 12z"/>
  </symbol>
  <symbol id="repeat">
    <path d="M18.5 8h-2.5v2h2.5c1.93 0 3.5 1.57 3.5 3.5s-1.57 3.5-3.5 3.5h-13c-1.93 0-3.5-1.57-3.5-3.5s1.57-3.5 3.5-3.5h2.5v3l6-4-6-4v3h-2.5c-3.037 0-5.5 2.463-5.5 5.5s2.463 5.5 5.5 5.5h13c3.037 0 5.5-2.463 5.5-5.5s-2.463-5.5-5.5-5.5z"/>
  </symbol>
  <symbol id="repeat2">
    <path d="M2 12c0 .999.381 1.902.989 2.604l-1.098.732-.587.392c-.814-1.025-1.304-2.318-1.304-3.728 0-3.313 2.687-6 6-6h9v-3l6 4-6 4v-3h-9c-2.206 0-4 1.794-4 4zm20.696-3.728l-.587.392-1.098.732c.608.702.989 1.605.989 2.604 0 2.206-1.795 4-4 4h-9v-3l-6 4 6 4v-3h9c3.313 0 6-2.687 6-6 0-1.41-.489-2.703-1.304-3.728z"/>
  </symbol>
  <symbol id="repeatonce">
    <path d="M6.09 18h-.09c-3.313 0-6-2.687-6-6s2.687-6 6-6h2v-3l6 4-6 4v-3h-2c-2.206 0-4 1.794-4 4s1.794 4 4 4h.09c-.055.326-.09.658-.09 1s.035.674.09 1zm11.91-12h-2v2h2c2.206 0 4 1.794 4 4s-1.794 4-4 4h-.09c.055.326.09.658.09 1s-.035.674-.09 1h.09c3.313 0 6-2.687 6-6s-2.687-6-6-6zm-6 7c-2.209 0-4 1.791-4 3.999 0 2.209 1.791 4.001 4 4.001s4-1.792 4-4.001c0-2.208-1.791-3.999-4-3.999zm1.016 6.188h-1.055v-3.109c-.022 0-.884.413-.904.423l-.179-.936 1.241-.574h.896v4.196z"/>
  </symbol>
  <symbol id="rewind">
    <path d="M12 12l12-7v14l-12-7zm-12 0l12-7v14l-12-7z"/>
  </symbol>
  <symbol id="shuffle">
    <path d="M2 7h-2v-2h2c3.49 0 5.48 1.221 6.822 2.854-.41.654-.754 1.312-1.055 1.939-1.087-1.643-2.633-2.793-5.767-2.793zm16 10c-3.084 0-4.604-1.147-5.679-2.786-.302.627-.647 1.284-1.06 1.937 1.327 1.629 3.291 2.849 6.739 2.849v3l6-4-6-4v3zm0-10v3l6-4-6-4v3c-5.834 0-7.436 3.482-8.85 6.556-1.343 2.921-2.504 5.444-7.15 5.444h-2v2h2c5.928 0 7.543-3.511 8.968-6.609 1.331-2.893 2.479-5.391 7.032-5.391z"/>
  </symbol>
  <symbol id="skipback">
    <path d="M9 12l15-9v18l-15-9zm-9 0l13 8v-3.268l-7.888-4.732 7.888-4.732v-3.268l-13 8z"/>
  </symbol>
  <symbol id="skipforward">
    <path d="M0 21v-18l15 9-15 9zm11-17v3.268l7.888 4.732-7.888 4.732v3.268l13-8-13-8z"/>
  </symbol>
  <symbol id="start">
    <path d="M13 12l11-7v14l-11-7zm-11 0l11-7v14l-11-7zm-2 6h2v-12h-2v12z"/>
  </symbol>
  <symbol id="stop">
    <path d="M0 0h24v24h-24z"/>
  </symbol>
</svg>