<svg xmlns="http://www.w3.org/2000/svg" display="none">
  <symbol id="back">
    <path d="M4 2v20h-2v-20h2zm18 0l-16 10 16 10v-20z"/>
  </symbol>
  <symbol id="disc1">
    <path d="M12 8c-2.209 0-4 1.791-4 4s1.791 4 4 4 4-1.791 4-4-1.791-4-4-4zm0 6c-1.104 0-2-.897-2-2s.896-2 2-2 2 .897 2 2-.896 2-2 2zm0-12c5.514 0 10 4.486 10 10s-4.486 10-10 10-10-4.486-10-10 4.486-10 10-10zm0-2c-6.627 0-12 5.373-12 12s5.373 12 12 12 12-5.373 12-12-5.373-12-12-12zm-2.914 20.526c-2.625-.902-4.697-2.978-5.592-5.606l1.02-.127c.807 2.174 2.529 3.901 4.699 4.714l-.127 1.019zm.258-2.054c-1.723-.71-3.098-2.085-3.807-3.807l1.041-.13c.596 1.272 1.623 2.299 2.895 2.896l-.129 1.041zm8.095-9.007c-.598-1.272-1.625-2.3-2.896-2.896l.131-1.041c1.721.71 3.096 2.085 3.807 3.807l-1.042.13zm2.049-.256c-.814-2.157-2.529-3.869-4.691-4.677l.129-1.019c2.613.896 4.68 2.958 5.582 5.568l-1.02.128z"/>
  </symbol>
  <symbol id="disc2">
    <path d="M24 20.682c-.002 1.555-1.17 2.318-2.24 2.318-.903 0-1.76-.544-1.76-1.616 0-1.104 1.201-2.118 2.515-2.118.161 0 .323.015.485.047v-4.312l-6 1.229v5.45c-.002 1.556-1.18 2.32-2.258 2.32-.906 0-1.742-.542-1.742-1.61 0-1.106 1.201-2.125 2.518-2.125.16 0 .322.015.484.047v-6.52l7.998-1.792v8.682zm-13-6.682c-1.657 0-3-1.343-3-3s1.343-3 3-3 3 1.343 3 3-1.343 3-3 3zm0-1c1.103 0 2-.897 2-2s-.897-2-2-2-2 .897-2 2 .897 2 2 2zm-1.818 2.646c-1.293-.508-2.319-1.534-2.827-2.827l-1.025.128c.6 1.746 1.979 3.125 3.725 3.724l.127-1.025zm-4.869-2.572l-1 .125c.757 2.648 2.84 4.731 5.488 5.488l.125-1c-2.194-.683-3.93-2.418-4.613-4.613zm8.505-6.72c1.293.508 2.319 1.534 2.827 2.828l1.025-.128c-.6-1.746-1.979-3.125-3.725-3.725l-.127 1.025zm-1.771 15.644c.082-.734.378-1.441.878-2.045-.304.03-.613.047-.925.047-4.963 0-9-4.038-9-9s4.037-9 9-9c4.912 0 8.91 3.957 8.992 8.849l1.978-.443c-.311-5.798-5.096-10.406-10.97-10.406-6.075 0-11 4.925-11 11s4.925 11 11 11l.047-.002zm2.151-18.685l-.125 1c2.195.682 3.931 2.418 4.613 4.613l1-.125c-.755-2.648-2.838-4.732-5.488-5.488z"/>
  </symbol>
  <symbol id="eject">
    <path d="M24 22h-24v-4h24v4zm0-6.062l-12-13.938-12 13.938h24z"/>
  </symbol>
  <symbol id="end">
    <path d="M0 19v-14l11 7-11 7zm11 0v-14l11 7-11 7zm13-13h-2v12h2v-12z"/>
  </symbol>
  <symbol id="fastforward">
    <path d="M0 19v-14l12 7-12 7zm12 0v-14l12 7-12 7z"/>
  </symbol>
  <symbol id="forward">
    <path d="M20 22v-20h2v20h-2zm-18 0l16-10-16-10v20z"/>
  </symbol>
  <symbol id="music">
    <path d="M503.319,5.939c-5.506-4.705-12.783-6.767-19.958-5.635L169.555,49.852c-12.04,1.901-20.909,12.28-20.909,24.47v99.097
			v156.903H99.097C44.455,330.323,0,371.073,0,421.161C0,471.25,44.455,512,99.097,512c54.642,0,99.097-40.75,99.097-90.839v-66.065
			V194.588l264.258-41.725v136.169h-49.548c-54.642,0-99.097,40.75-99.097,90.839s44.455,90.839,99.097,90.839
			S512,429.959,512,379.871v-66.065V123.871V24.774C512,17.529,508.827,10.646,503.319,5.939z"/>
  </symbol>
  <symbol id="music2">
    <path d="M503.319 5.939C 497.813 1.2340002 490.536 -0.82800007 483.361 0.3039999L483.361 0.3039999L169.555 49.852C 157.515 51.753002 148.646 62.132 148.646 74.322L148.646 74.322L148.646 173.419L148.646 330.32202L99.097 330.32202C 44.455 330.323 0 371.073 0 421.161C 0 471.25 44.455 512 99.097 512C 153.739 512 198.194 471.25 198.194 421.161L198.194 421.161L198.194 355.096L198.194 194.588L462.452 152.863L462.452 289.032L412.904 289.032C 358.262 289.032 313.807 329.782 313.807 379.871C 313.807 429.96 358.26202 470.71 412.904 470.71C 467.54596 470.71 512 429.959 512 379.871L512 379.871L512 313.806L512 123.871L512 24.774C 512 17.529 508.827 10.646 503.319 5.939z" stroke="none" fill="#000000" fill-rule="nonzero" />
  </symbol>
  <symbol id="pause">
    <path d="M10 24h-6v-24h6v24zm10-24h-6v24h6v-24z"/>
  </symbol>
  <symbol id="play">
    <path d="M2 24v-24l20 12-20 12z"/>
  </symbol>
  <symbol id="repeat">
    <path d="M18.5 8h-2.5v2h2.5c1.93 0 3.5 1.57 3.5 3.5s-1.57 3.5-3.5 3.5h-13c-1.93 0-3.5-1.57-3.5-3.5s1.57-3.5 3.5-3.5h2.5v3l6-4-6-4v3h-2.5c-3.037 0-5.5 2.463-5.5 5.5s2.463 5.5 5.5 5.5h13c3.037 0 5.5-2.463 5.5-5.5s-2.463-5.5-5.5-5.5z"/>
  </symbol>
  <symbol id="repeat2">
    <path d="M2 12c0 .999.381 1.902.989 2.604l-1.098.732-.587.392c-.814-1.025-1.304-2.318-1.304-3.728 0-3.313 2.687-6 6-6h9v-3l6 4-6 4v-3h-9c-2.206 0-4 1.794-4 4zm20.696-3.728l-.587.392-1.098.732c.608.702.989 1.605.989 2.604 0 2.206-1.795 4-4 4h-9v-3l-6 4 6 4v-3h9c3.313 0 6-2.687 6-6 0-1.41-.489-2.703-1.304-3.728z"/>
  </symbol>
  <symbol id="repeatonce">
    <path d="M6.09 18h-.09c-3.313 0-6-2.687-6-6s2.687-6 6-6h2v-3l6 4-6 4v-3h-2c-2.206 0-4 1.794-4 4s1.794 4 4 4h.09c-.055.326-.09.658-.09 1s.035.674.09 1zm11.91-12h-2v2h2c2.206 0 4 1.794 4 4s-1.794 4-4 4h-.09c.055.326.09.658.09 1s-.035.674-.09 1h.09c3.313 0 6-2.687 6-6s-2.687-6-6-6zm-6 7c-2.209 0-4 1.791-4 3.999 0 2.209 1.791 4.001 4 4.001s4-1.792 4-4.001c0-2.208-1.791-3.999-4-3.999zm1.016 6.188h-1.055v-3.109c-.022 0-.884.413-.904.423l-.179-.936 1.241-.574h.896v4.196z"/>
  </symbol>
  <symbol id="rewind">
    <path d="M12 12l12-7v14l-12-7zm-12 0l12-7v14l-12-7z"/>
  </symbol>
  <symbol id="shuffle">
    <path d="M2 7h-2v-2h2c3.49 0 5.48 1.221 6.822 2.854-.41.654-.754 1.312-1.055 1.939-1.087-1.643-2.633-2.793-5.767-2.793zm16 10c-3.084 0-4.604-1.147-5.679-2.786-.302.627-.647 1.284-1.06 1.937 1.327 1.629 3.291 2.849 6.739 2.849v3l6-4-6-4v3zm0-10v3l6-4-6-4v3c-5.834 0-7.436 3.482-8.85 6.556-1.343 2.921-2.504 5.444-7.15 5.444h-2v2h2c5.928 0 7.543-3.511 8.968-6.609 1.331-2.893 2.479-5.391 7.032-5.391z"/>
  </symbol>
  <symbol id="skipback">
    <path d="M9 12l15-9v18l-15-9zm-9 0l13 8v-3.268l-7.888-4.732 7.888-4.732v-3.268l-13 8z"/>
  </symbol>
  <symbol id="skipforward">
    <path d="M0 21v-18l15 9-15 9zm11-17v3.268l7.888 4.732-7.888 4.732v3.268l13-8-13-8z"/>
  </symbol>
  <symbol id="start">
    <path d="M13 12l11-7v14l-11-7zm-11 0l11-7v14l-11-7zm-2 6h2v-12h-2v12z"/>
  </symbol>
  <symbol id="stop">
    <path d="M0 0h24v24h-24z"/>
  </symbol>
</svg>