<?xml version="1.0" standalone="no"?>
<!DOCTYPE svg PUBLIC "-//W3C//DTD SVG 1.0//EN" "http://www.w3.org/TR/2001/REC-SVG-20010904/DTD/svg10.dtd">
<svg xmlns="http://www.w3.org/2000/svg" xmlns:xlink="http://www.w3.org/1999/xlink" id="body_1" width="40" height="40">

<g transform="matrix(0.078125 0 0 0.078125 0 0)">
	<g>
		<g>
            <path d="M503.319 5.939C 497.813 1.2340002 490.536 -0.82800007 483.361 0.3039999L483.361 0.3039999L169.555 49.852C 157.515 51.753002 148.646 62.132 148.646 74.322L148.646 74.322L148.646 173.419L148.646 330.32202L99.097 330.32202C 44.455 330.323 0 371.073 0 421.161C 0 471.25 44.455 512 99.097 512C 153.739 512 198.194 471.25 198.194 421.161L198.194 421.161L198.194 355.096L198.194 194.588L462.452 152.863L462.452 289.032L412.904 289.032C 358.262 289.032 313.807 329.782 313.807 379.871C 313.807 429.96 358.26202 470.71 412.904 470.71C 467.54596 470.71 512 429.959 512 379.871L512 379.871L512 313.806L512 123.871L512 24.774C 512 17.529 508.827 10.646 503.319 5.939z" stroke="none" fill="#000000" fill-rule="nonzero" />
		</g>
	</g>
</g>
</svg>